#!OML:ASF I:\Actors\actors\Patient Classification 2\Patient 1\Session 1\actor1.ASF
:FULLY-SPECIFIED
:DEGREES
858
root -1.14929 18.1005 5.85709 -1.36911 -4.26466 -5.90476
lowerback 3.36433 1.24177 4.53748
upperback -1.77351 1.91082 0.876082
thorax -3.60192 0.851516 -1.75899
lowerneck -7.68022 -0.959183 2.83853
upperneck 17.795 -1.66362 -0.426978
head 6.65507 -0.65283 -0.741207
rclavicle -2.08972e-014 -2.14687e-014
rhumerus -51.1096 -6.7966 -85.6173
rradius 40.0999
rwrist 10.2125
rhand -5.05581 -33.1833
rfingers 7.12502
rthumb 20.7398 657.905
lclavicle -2.08972e-014 -2.14687e-014
lhumerus -45.6435 6.81541 86.2789
lradius 36.8115
lwrist -10.1243
lhand -9.65144 -25.9694
lfingers 7.12502
lthumb 16.3193 3.36397
rfemur 11.0628 -0.0897065 22.4056
rtibia 7.95139e-015
rfoot -16.9408 -7.7877
rtoes 7.28604
lfemur 20.8583 -9.97527 -11.7964
ltibia -19.0699
lfoot -5.96968 22.3917
ltoes -5.36303
859
root -1.14728 18.101 5.85842 -1.33642 -4.26038 -5.85709
lowerback 3.32554 1.23789 4.50698
upperback -1.77735 1.90195 0.873989
thorax -3.58531 0.848153 -1.74261
lowerneck -7.60593 -1.03646 2.71938
upperneck 17.7637 -1.76967 -0.31552
head 6.63237 -0.703285 -0.693285
rclavicle -1.04362e-015 1.19271e-015
rhumerus -51.1159 -6.72612 -85.7177
rradius 40.2562
rwrist 10.215
rhand -5.03715 -33.2363
rfingers 7.12502
rthumb 20.7577 657.854
lclavicle -1.04362e-015 1.19271e-015
lhumerus -45.5947 6.68928 86.3351
lradius 36.8303
lwrist -10.0344
lhand -9.66742 -25.8451
lfingers 7.12502
lthumb 16.3039 3.48946
rfemur 11.0298 -0.088013 22.3435
rtibia 9.54166e-015
rfoot -16.9267 -7.81099
rtoes 7.27694
lfemur 20.8091 -10.0344 -11.8645
ltibia -19.0373
lfoot -6.00886 22.4346
ltoes -5.2389
860
root -1.14462 18.1014 5.85985 -1.3127 -4.25523 -5.79804
lowerback 3.2856 1.2344 4.48098
upperback -1.77682 1.89359 0.870408
thorax -3.5633 0.845088 -1.73021
lowerneck -7.48161 -1.11274 2.53706
upperneck 17.7033 -1.86908 -0.17184
head 6.59281 -0.752525 -0.623424
rclavicle -3.57812e-014 1.11319e-014
rhumerus -51.0796 -6.63598 -85.7723
rradius 40.3971
rwrist 10.1878
rhand -4.97278 -33.0579
rfingers 7.12502
rthumb 20.8196 658.039
lclavicle -3.57812e-014 1.11319e-014
lhumerus -45.519 6.58533 86.4027
lradius 36.9074
lwrist -9.91284
lhand -9.65482 -25.7326
lfingers 7.12502
lthumb 16.316 3.60101
rfemur 11.0026 -0.0865325 22.2665
rtibia 3.02153e-014
rfoot -16.9046 -7.81434
rtoes 7.23901
lfemur 20.7712 -10.1488 -11.9614
ltibia -18.9835
lfoot -6.11875 22.5113
ltoes -5.08885
861
root -1.14088 18.1019 5.86087 -1.30208 -4.24042 -5.73622
lowerback 3.265 1.22599 4.46741
upperback -1.77984 1.88054 0.867364
thorax -3.55587 0.839011 -1.7245
lowerneck -7.30248 -1.14971 2.45016
upperneck 17.598 -1.90603 -0.141488
head 6.52824 -0.775203 -0.599963
rclavicle -4.5969e-015 -2.90226e-014
rhumerus -51.0144 -6.5453 -85.8012
rradius 40.5242
rwrist 10.1109
rhand -4.78935 -32.9647
rfingers 7.12502
rthumb 20.9958 658.152
lclavicle -4.5969e-015 -2.90226e-014
lhumerus -45.4262 6.54848 86.4644
lradius 37.0012
lwrist -9.85075
lhand -9.64397 -25.677
lfingers 7.12502
lthumb 16.3265 3.65577
rfemur 10.9898 -0.0939534 22.1811
rtibia -1.90833e-014
rfoot -16.8844 -7.79061
rtoes 7.19813
lfemur 20.7339 -10.2637 -12.0639
ltibia -18.9221
lfoot -6.21944 22.6002
ltoes -4.90133
862
root -1.13735 18.1016 5.86223 -1.3047 -4.22689 -5.69279
lowerback 3.24941 1.21707 4.47377
upperback -1.78629 1.86813 0.863009
thorax -3.5542 0.832577 -1.73149
lowerneck -7.1666 -1.16607 2.43484
upperneck 17.5521 -1.91762 -0.164575
head 6.48942 -0.784493 -0.604217
rclavicle -1.41137e-014 -1.19271e-015
rhumerus -50.9685 -6.47067 -85.8426
rradius 40.6684
rwrist 10.0165
rhand -4.84829 -32.7879
rfingers 7.12502
rthumb 20.9392 658.322
lclavicle -1.41137e-014 -1.19271e-015
lhumerus -45.3323 6.53173 86.5084
lradius 37.1055
lwrist -9.844
lhand -9.63739 -25.6273
lfingers 7.12502
lthumb 16.3328 3.70496
rfemur 10.995 -0.10175 22.1168
rtibia -2.22639e-014
rfoot -16.8662 -7.79364
rtoes 7.13365
lfemur 20.7056 -10.303 -12.1327
ltibia -18.8672
lfoot -6.28112 22.6199
ltoes -4.7904
863
root -1.13544 18.101 5.86377 -1.32295 -4.21686 -5.65295
lowerback 3.24767 1.21337 4.45504
upperback -1.79531 1.86263 0.86679
thorax -3.56357 0.830012 -1.7169
lowerneck -7.00051 -1.18039 2.506
upperneck 17.5172 -1.91994 -0.288626
head 6.44696 -0.791655 -0.654062
rclavicle -6.90777e-015 -1.90833e-014
rhumerus -50.9241 -6.36915 -85.8957
rradius 40.8315
rwrist 9.90606
rhand -5.37907 -32.263
rfingers 7.12502
rthumb 20.4292 658.792
lclavicle -6.90777e-015 -1.90833e-014
lhumerus -45.2259 6.38924 86.6271
lradius 37.2294
lwrist -9.6797
lhand -9.64885 -25.4759
lfingers 7.12502
lthumb 16.3218 3.85728
rfemur 11.0178 -0.107948 22.0617
rtibia 7.95139e-015
rfoot -16.8964 -7.81811
rtoes 7.0117
lfemur 20.7021 -10.3173 -12.1935
ltibia -18.8245
lfoot -6.33518 22.6034
ltoes -4.72841
864
root -1.13297 18.1008 5.86537 -1.33714 -4.21468 -5.62224
lowerback 3.23904 1.20732 4.45227
upperback -1.80123 1.85467 0.882595
thorax -3.56592 0.826175 -1.69844
lowerneck -6.78651 -1.17096 2.60034
upperneck 17.4522 -1.88455 -0.449132
head 6.38649 -0.782216 -0.71585
rclavicle 2.73329e-016 -6.36111e-015
rhumerus -50.8358 -6.23268 -85.9296
rradius 40.9732
rwrist 9.72957
rhand -5.75642 -31.9161
rfingers 7.12502
rthumb 20.0665 659.1
lclavicle 2.73329e-016 -6.36111e-015
lhumerus -45.0831 6.23789 86.7933
lradius 37.3466
lwrist -9.44932
lhand -9.66371 -25.2363
lfingers 7.12502
lthumb 16.3075 4.09803
rfemur 11.038 -0.105955 22.014
rtibia -2.54444e-014
rfoot -16.9257 -7.81954
rtoes 6.89493
lfemur 20.7111 -10.3765 -12.2565
ltibia -18.7984
lfoot -6.39109 22.6409
ltoes -4.58686
865
root -1.12896 18.1016 5.86659 -1.34048 -4.21512 -5.59475
lowerback 3.22065 1.20028 4.49149
upperback -1.80187 1.84608 0.882266
thorax -3.55562 0.821164 -1.7197
lowerneck -6.5474 -1.11575 2.66533
upperneck 17.3242 -1.79548 -0.525643
head 6.30402 -0.742502 -0.741471
rclavicle -1.45113e-014 -5.56597e-015
rhumerus -50.6957 -6.13417 -85.9588
rradius 41.0351
rwrist 9.43567
rhand -5.84308 -32.0643
rfingers 7.12502
rthumb 19.9832 658.943
lclavicle -1.45113e-014 -5.56597e-015
lhumerus -44.9153 6.20331 86.8892
lradius 37.4902
lwrist -9.28635
lhand -9.57883 -25.0262
lfingers 7.12502
lthumb 16.3892 4.30139
rfemur 11.0438 -0.100184 21.966
rtibia 2.54444e-014
rfoot -16.9236 -7.81458
rtoes 6.8751
lfemur 20.7134 -10.3776 -12.3097
ltibia -18.7853
lfoot -6.37173 22.6623
ltoes -4.57378
